<?xml version="1.0" encoding="UTF-8"?>
<svg version="1.1" xmlns="http://www.w3.org/2000/svg" width="1024" height="1024">
<path d="M0 0 C1.93781095 2.75765405 2.26516079 4.92610053 2.05859375 8.28125 C1.28536452 11.90358515 -0.36866108 14.28809728 -3.375 16.3125 C-5.78471648 17.0606281 -8.07891209 17.48671437 -10.58203125 17.79296875 C-38.54929659 22.99527125 -64.49380261 47.36989991 -84.375 66.3125 C-85.22449219 67.10914063 -86.07398438 67.90578125 -86.94921875 68.7265625 C-101.98620782 83.22061476 -113.35324464 100.98143484 -123.25292969 119.24902344 C-124.3972645 121.35344419 -125.56128367 123.44617938 -126.7265625 125.5390625 C-131.46969905 134.15344274 -135.42463699 142.7747602 -138.60839844 152.07861328 C-139.4627547 154.56821831 -140.34543853 157.04709274 -141.2265625 159.52734375 C-141.86110386 161.35096185 -142.49393421 163.17517626 -143.125 165 C-143.41906738 165.83047852 -143.71313477 166.66095703 -144.01611328 167.51660156 C-147.77303225 178.63290495 -148.74690111 189.82174223 -148.6875 201.5 C-148.68186035 202.67836426 -148.6762207 203.85672852 -148.67041016 205.07080078 C-148.53677966 214.75438084 -147.65545926 223.90408117 -145.375 233.3125 C-145.06900879 234.57634521 -145.06900879 234.57634521 -144.75683594 235.86572266 C-141.80886528 247.66404189 -137.97751406 258.52889993 -132.375 269.3125 C-131.85421875 270.37210938 -131.3334375 271.43171875 -130.796875 272.5234375 C-123.89746325 286.08781496 -114.80484707 298.27272036 -104.375 309.3125 C-103.24537767 310.64191948 -102.12020688 311.97513718 -101 313.3125 C-83.20989122 333.58589628 -55.99399846 351.57370486 -28.49902344 353.515625 C-25.37107408 353.61695151 -22.25454053 353.64148242 -19.125 353.625 C-17.9903833 353.61936035 -16.8557666 353.6137207 -15.68676758 353.60791016 C7.41567603 353.28195544 29.35741686 348.32893645 50.625 339.3125 C51.25841309 339.05307617 51.89182617 338.79365234 52.54443359 338.52636719 C80.89254321 326.88087511 107.44620543 309.9649697 129.734375 288.89453125 C131.625 287.3125 131.625 287.3125 133.625 287.3125 C133.955 286.3225 134.285 285.3325 134.625 284.3125 C136.15625 282.83984375 136.15625 282.83984375 138.125 281.25 C151.87744773 269.46914212 164.29012999 253.31560203 170.625 236.3125 C170.88893555 235.60561035 171.15287109 234.8987207 171.42480469 234.17041016 C172.28583948 231.8295647 173.11810543 229.48072896 173.9375 227.125 C174.19265381 226.40054688 174.44780762 225.67609375 174.71069336 224.9296875 C181.33217753 204.92733449 179.39733133 178.31077754 173.625 158.3125 C173.42132812 157.60448242 173.21765625 156.89646484 173.0078125 156.16699219 C163.17665911 123.35096629 142.45955712 89.07218012 111.625 72.3125 C89.87635283 61.58889983 65.46729954 57.81488239 41.625 63.3125 C40.99207031 63.4578418 40.35914063 63.60318359 39.70703125 63.75292969 C8.86739094 71.11038673 -16.9223942 92.88612133 -39.375 114.3125 C-40.09945312 114.98410156 -40.82390625 115.65570313 -41.5703125 116.34765625 C-59.10059666 133.06175309 -79.97858973 160.71440958 -80.61328125 185.98828125 C-80.8400497 197.49087975 -80.28595398 207.39013183 -76.375 218.3125 C-76.024375 219.35535156 -75.67375 220.39820313 -75.3125 221.47265625 C-70.43280524 234.60377931 -62.24767611 244.27081327 -49.8125 250.62109375 C-29.79580777 258.83817337 -6.3068508 251.59099876 12.61279297 243.77050781 C38.24169197 232.73154155 64.39711439 218.17194697 76.25390625 191.671875 C77.47357503 188.57231788 78.6126052 185.48527299 79.625 182.3125 C79.82609375 181.69117188 80.0271875 181.06984375 80.234375 180.4296875 C81.74894683 172.22070818 82.01124253 161.52857642 77.625 154.3125 C71.08383153 149.66100242 62.26142559 150.49066395 54.61572266 151.60546875 C40.85371 154.06379706 28.88020379 159.59357435 20.625 171.3125 C17.60907597 176.30130731 15.56574002 181.41398835 13.75 186.9375 C11.22589376 194.07567245 7.20170486 199.2230403 0.4375 202.75 C-5.39746926 205.40009806 -11.48918467 206.50415004 -17.71875 204.59375 C-24.82165689 201.65788182 -29.41085581 197.09654154 -33.4375 190.59765625 C-37.33875933 181.08833664 -33.85955412 168.41239891 -30.15625 159.3203125 C-19.27858793 136.05420197 0.27421973 120.661702 23.625 111.3125 C24.37652344 111.00618652 25.12804687 110.69987305 25.90234375 110.38427734 C37.57398625 105.83027012 49.0208371 104.73939974 61.4375 104.6875 C62.12279785 104.68032959 62.8080957 104.67315918 63.51416016 104.66577148 C81.99048576 104.56167327 98.70615126 108.90072837 112.40234375 121.90234375 C125.07115482 135.63987702 126.43218922 153.86726526 125.81298828 171.65917969 C125.35453453 178.12992686 123.55410502 184.15159067 121.625 190.3125 C121.38265625 191.28574219 121.1403125 192.25898438 120.890625 193.26171875 C111.23678121 228.57705547 76.33368924 258.08560524 46.1328125 275.80078125 C36.67412614 281.17606343 26.82476535 285.56086217 16.625 289.3125 C15.408125 289.8075 14.19125 290.3025 12.9375 290.8125 C-11.03580073 299.7965772 -39.90058623 298.84810416 -63.375 289.3125 C-64.66857422 288.80976562 -64.66857422 288.80976562 -65.98828125 288.296875 C-77.83345021 283.10128534 -88.10230043 272.80229962 -95.375 262.3125 C-95.89191406 261.59449219 -96.40882813 260.87648438 -96.94140625 260.13671875 C-111.9929699 237.38252723 -114.68632504 206.76311236 -110.0703125 180.46484375 C-104.05256977 153.18215621 -92.78249962 127.95589206 -76.375 105.3125 C-75.96926758 104.75127441 -75.56353516 104.19004883 -75.14550781 103.61181641 C-69.86730631 96.38515907 -64.1555997 89.67286321 -58.02734375 83.15625 C-55.57739033 80.52949582 -53.2256786 77.84022234 -50.875 75.125 C-47.00816918 70.80853769 -42.80245807 67.18486059 -38.24609375 63.61328125 C-35.94566299 61.76980681 -33.75961679 59.87954352 -31.56640625 57.9140625 C-27.54901872 54.38093687 -23.33393791 51.32397043 -18.875 48.375 C-18.09962891 47.86066406 -17.32425781 47.34632813 -16.52539062 46.81640625 C-3.19826463 38.14130389 11.25290991 31.43834236 26.625 27.3125 C27.56988281 27.03148437 28.51476562 26.75046875 29.48828125 26.4609375 C50.89994791 20.86619188 77.19845512 23.49409038 98.625 28.3125 C98.625 28.9725 98.625 29.6325 98.625 30.3125 C99.9553125 30.4053125 99.9553125 30.4053125 101.3125 30.5 C123.4163042 33.70861674 142.60480356 49.86311846 158.625 64.3125 C159.37394531 64.98796875 160.12289063 65.6634375 160.89453125 66.359375 C184.45067348 88.81207269 202.48600295 121.65444763 209.625 153.3125 C209.9034375 154.46878906 210.181875 155.62507812 210.46875 156.81640625 C217.402451 188.32855448 212.29978045 223.16019381 195.19238281 250.61132812 C180.88413236 272.39570944 162.60292124 292.55803322 142.625 309.3125 C141.26955078 310.50166016 141.26955078 310.50166016 139.88671875 311.71484375 C130.91341289 319.54301762 121.38275277 326.49818358 111.625 333.3125 C110.64611816 333.99940918 110.64611816 333.99940918 109.64746094 334.70019531 C99.70452051 341.63797396 89.33101361 347.63296967 78.625 353.3125 C77.69107422 353.80943359 77.69107422 353.80943359 76.73828125 354.31640625 C49.92294725 368.46401072 20.36316873 378.53175411 -10.125 378.5625 C-10.81519226 378.56350708 -11.50538452 378.56451416 -12.2164917 378.56555176 C-28.20648487 378.54979031 -43.28418499 376.89037087 -58.375 371.3125 C-59.45523438 370.91546875 -60.53546875 370.5184375 -61.6484375 370.109375 C-94.43949946 357.05297962 -122.34855772 330.58394967 -141.375 301.3125 C-142.05175781 300.27609375 -142.72851562 299.2396875 -143.42578125 298.171875 C-161.00070106 270.461516 -171.09329374 238.15600275 -170.8125 205.25 C-170.80979095 204.49713715 -170.80708191 203.74427429 -170.80429077 202.96859741 C-170.69946043 183.61579333 -167.68810671 165.60639069 -161.375 147.3125 C-160.39013815 144.06931023 -159.42577489 140.82065102 -158.46484375 137.5703125 C-150.09884288 112.56226688 -136.57634849 89.68939632 -121.375 68.3125 C-120.75625 67.43851563 -120.75625 67.43851563 -120.125 66.546875 C-108.07879164 49.6487216 -93.84678791 33.96283311 -77.375 21.3125 C-76.58851074 20.70341797 -76.58851074 20.70341797 -75.78613281 20.08203125 C-57.95070048 6.38677902 -21.39400099 -15.2010007 0 0 Z " fill="#FDD065" transform="translate(494.375,291.6875)"/>
<path d="M0 0 C1.34592922 0.37115067 2.69212329 0.74134217 4.03857422 1.1105957 C11.93003956 3.28935447 19.7502441 5.64663529 27.5390625 8.1640625 C34.59217559 10.31066214 41.7652283 11.99188997 48.92871094 13.72607422 C51.12771818 14.26704261 53.3184393 14.83160363 55.5078125 15.41015625 C63.30443936 17.45801657 71.05576108 19.0617232 79.02392578 20.27392578 C82.4900729 20.80650758 85.86293542 21.42021138 89.25390625 22.3203125 C93.70924765 23.47968286 98.1877107 23.99995379 102.75 24.5625 C111.11507536 25.68010727 119.29116934 27.29432182 127.5 29.25 C129.03901978 29.61109863 129.03901978 29.61109863 130.60913086 29.97949219 C149.11944398 34.52223342 149.11944398 34.52223342 154.31640625 41.3828125 C156.14708657 44.92930692 155.88539646 47.36587993 155.3125 51.3125 C153.66753639 55.01366811 151.80885964 57.27295688 148.3125 59.3125 C138.44400231 62.98899914 129.68182671 60.95586342 119.8125 58.5625 C101.71378493 54.36152049 83.4595136 51.61379904 65.0378418 49.26293945 C64.18101807 49.15167725 63.32419434 49.04041504 62.44140625 48.92578125 C61.31327515 48.78329956 61.31327515 48.78329956 60.16235352 48.63793945 C58.3125 48.3125 58.3125 48.3125 56.3125 47.3125 C53.07324923 46.81554382 49.82579867 46.41565035 46.57421875 46.0078125 C40.7461043 45.16393612 35.03421279 43.6836267 29.3125 42.3125 C30.33234985 43.3166394 30.33234985 43.3166394 31.37280273 44.34106445 C33.94456125 46.87604873 36.50922317 49.41811847 39.07202148 51.9621582 C40.17269919 53.05290691 41.27517983 54.1418399 42.37963867 55.22875977 C48.73860708 61.48940852 54.74722421 67.81275522 60.31005859 74.80957031 C62.14198421 77.09936565 64.03231259 79.30515176 65.98046875 81.49609375 C97.82616356 117.55733378 97.82616356 117.55733378 99.625 136.625 C99.16283213 142.07858083 96.73674014 144.8091354 93.0625 148.6875 C89.36561715 150.87202168 86.50679784 151.00443101 82.3125 150.3125 C75.85511683 147.60940937 72.44866443 141.56955721 68.75 135.9375 C57.5544747 118.95552342 44.71520515 102.87201138 30.83203125 88.015625 C28.58990227 85.61011607 26.41634235 83.16091612 24.25 80.6875 C19.74751581 75.67114533 15.00774093 70.89866925 10.25 66.125 C9.11582642 64.98393799 9.11582642 64.98393799 7.95874023 63.81982422 C3.7996373 59.67203426 -0.43923469 55.68662111 -4.90991211 51.87573242 C-6.7498139 50.2577004 -8.47249277 48.56166867 -10.1875 46.8125 C-12.48587033 44.4780566 -14.83364293 42.266774 -17.3125 40.125 C-18.29863281 39.26455078 -18.29863281 39.26455078 -19.3046875 38.38671875 C-20.61484522 37.2462372 -21.92686198 36.10783577 -23.24707031 34.97900391 C-37.43506645 22.78581229 -37.43506645 22.78581229 -39.04296875 13.19140625 C-39.39970893 8.09098579 -37.96203735 5.10406956 -34.6875 1.3125 C-23.68890307 -6.99256299 -12.35318226 -3.5089219 0 0 Z " fill="#FDD065" transform="translate(216.6875,266.6875)"/>
<path d="M0 0 C4.81941441 2.49895562 8.06403125 5.30849597 9.86572266 10.48950195 C12.0469638 20.00138998 13.09965587 29.54687646 14.07772827 39.24533081 C14.59010537 44.31644914 15.13145855 49.38451351 15.66796875 54.453125 C15.77685928 55.48872055 15.88574982 56.5243161 15.99794006 57.59129333 C17.05666696 67.63120021 18.18597219 77.66219824 19.36529541 87.68862915 C19.57854959 89.5079955 19.78948125 91.32763571 19.99798584 93.14755249 C20.28850201 95.68110805 20.58655507 98.21366543 20.88671875 100.74609375 C20.96988846 101.48265198 21.05305817 102.21921021 21.13874817 102.97808838 C21.6845127 107.48408892 22.68817916 111.66052036 24 116 C24.46738537 118.58277695 24.90329136 121.15855022 25.3125 123.75 C26.36003554 129.98252854 27.68366449 136.08128765 29.3125 142.1875 C29.52003906 142.96810791 29.72757813 143.74871582 29.94140625 144.55297852 C31.11518839 148.89975031 32.35917918 153.21969051 33.65625 157.53125 C41.15464686 182.83697347 41.15464686 182.83697347 36.81640625 192.6875 C34.2500242 196.42041935 31.56071915 199.13129159 27 200 C20.1043678 200.79130206 16.39855727 199.25971354 11 195 C-0.23703333 186.02580176 -7.12093241 171.25799736 -14.13671875 158.984375 C-21.33329886 146.40840727 -28.68611634 133.87484817 -37 122 C-37.47018555 121.32759277 -37.94037109 120.65518555 -38.42480469 119.96240234 C-48.00457132 106.32093404 -57.9884415 93.60361878 -70 82 C-70.79148437 81.20335937 -71.58296875 80.40671875 -72.3984375 79.5859375 C-75.12875105 76.87202223 -77.91677687 74.23042166 -80.75 71.625 C-81.27078125 71.14530762 -81.7915625 70.66561523 -82.328125 70.17138672 C-85.44558683 67.32995015 -88.63058246 64.66879868 -92 62.125 C-96.47677104 58.69632962 -99.59349576 56.27642376 -100.625 50.5 C-99.9511105 46.72621879 -98.91236981 45.30554746 -95.99609375 42.84765625 C-91.50847143 40.94195362 -87.26801155 41.71781055 -82.87109375 43.43359375 C-81.38556732 44.08434501 -79.9078705 44.75319262 -78.4375 45.4375 C-77.65246094 45.79585937 -76.86742187 46.15421875 -76.05859375 46.5234375 C-68.57211374 50.03576335 -61.73391957 54.21806471 -55 59 C-54.16726563 59.58910156 -53.33453125 60.17820312 -52.4765625 60.78515625 C-35.30898989 73.76064718 -21.93111864 90.71700768 -10.09399414 108.47875977 C-8.94559667 110.16189053 -8.94559667 110.16189053 -7 112 C-7.26554688 110.74445313 -7.53109375 109.48890625 -7.8046875 108.1953125 C-8.16148603 106.50521418 -8.51825529 104.81510968 -8.875 103.125 C-9.13603516 101.89136719 -9.13603516 101.89136719 -9.40234375 100.6328125 C-9.76023458 98.93614484 -10.1147783 97.23876837 -10.46630859 95.54077148 C-10.80400765 93.93307063 -11.15432272 92.32792382 -11.52197266 90.72680664 C-13.30689661 82.63475206 -13.95642745 74.43041528 -14.625 66.1875 C-14.69036957 65.3944043 -14.75573914 64.60130859 -14.8230896 63.78417969 C-15.85093691 51.02175548 -16.29940325 38.30238871 -16.3125 25.5 C-16.31590393 24.70105316 -16.31930786 23.90210632 -16.32281494 23.07894897 C-16.32838401 20.81277688 -16.31811534 18.54735132 -16.30078125 16.28125 C-16.29216064 14.99283203 -16.28354004 13.70441406 -16.2746582 12.37695312 C-15.90561698 7.8395503 -14.96365987 5.08046713 -11.9375 1.6875 C-7.88370948 -0.64127328 -4.5730755 -0.80653889 0 0 Z " fill="#FDD066" transform="translate(667,629)"/>
<path d="M0 0 C4.89179034 2.59909379 8.12739666 6.04234623 9.87109375 11.2734375 C9.9746377 13.61215026 10.01700421 15.95370371 10.02880859 18.29467773 C10.03388931 19.00782135 10.03897003 19.72096497 10.04420471 20.45571899 C10.05491793 22.01071885 10.06353437 23.56573421 10.07032394 25.12075615 C10.08222102 27.6219275 10.10172194 30.12293438 10.1234436 32.6240387 C10.18454322 39.73928886 10.23808285 46.85453769 10.27246094 53.9699707 C10.39253954 77.52666677 11.34392354 100.79586549 13.67038536 124.24151421 C13.95342799 127.1069695 14.22761246 129.97325789 14.5026083 132.83949471 C15.79038231 147.72155417 15.79038231 147.72155417 18.44555664 162.39428711 C19.48876734 167.00105288 19.91984979 171.81983616 18.03125 176.23828125 C16.40549669 178.56469591 14.67372821 180.03717816 11.93359375 180.84375 C9.50037023 181.05573538 8.17392412 181.16316741 5.87109375 180.2734375 C1.77295801 176.09205838 -0.71648354 171.63038825 -3.12890625 166.3359375 C-3.47139404 165.59448486 -3.81388184 164.85303223 -4.16674805 164.08911133 C-7.38446508 156.97223376 -9.92194397 149.76527115 -12.12890625 142.2734375 C-12.41378906 141.31695312 -12.69867187 140.36046875 -12.9921875 139.375 C-17.65230654 122.3117949 -19.33174507 104.21465191 -19.19140625 86.5859375 C-19.18689453 85.49087891 -19.18238281 84.39582031 -19.17773438 83.26757812 C-19.16609781 80.60280441 -19.14975189 77.93815233 -19.12890625 75.2734375 C-19.78890625 75.2734375 -20.44890625 75.2734375 -21.12890625 75.2734375 C-21.35707031 76.52511719 -21.58523438 77.77679688 -21.8203125 79.06640625 C-23.13195164 84.93498906 -25.51982422 90.16072561 -28.06640625 95.5859375 C-28.55294678 96.63193115 -29.0394873 97.6779248 -29.54077148 98.75561523 C-39.19167686 119.23565298 -50.75131752 137.75130558 -64.46484375 155.71484375 C-66.82141284 158.81631737 -68.9714446 162.03016365 -71.12890625 165.2734375 C-74.06144664 168.45733849 -76.32516256 169.59801228 -80.56640625 169.9609375 C-83.44388601 169.85044996 -84.74340884 169.58199571 -87.0078125 167.76953125 C-91.58431248 162.48725777 -92.67736407 158.67016371 -92.5859375 151.671875 C-91.74460145 145.41578645 -88.48624199 140.50092945 -85.12890625 135.2734375 C-84.70577148 134.61150391 -84.28263672 133.94957031 -83.84667969 133.26757812 C-81.99774014 130.38788486 -80.13774682 127.51587616 -78.25976562 124.6550293 C-73.91017346 118.01771319 -69.97161501 111.21593133 -66.12890625 104.2734375 C-65.38253906 102.96439453 -65.38253906 102.96439453 -64.62109375 101.62890625 C-61.39592114 95.89232873 -58.48187151 90.01398367 -55.62890625 84.0859375 C-55.09535522 82.99212769 -55.09535522 82.99212769 -54.55102539 81.8762207 C-50.9080222 74.20504735 -48.04213315 66.24126826 -45.12890625 58.2734375 C-44.63771787 56.93203927 -44.14650727 55.59064917 -43.65527344 54.24926758 C-43.41470718 53.59223343 -43.17414093 52.93519928 -42.92628479 52.258255 C-27.74837266 10.82407431 -27.74837266 10.82407431 -15.87890625 0.2734375 C-10.8031134 -1.57230536 -5.14404646 -1.75558283 0 0 Z " fill="#FDD066" transform="translate(534.12890625,82.7265625)"/>
<path d="M0 0 C2.8100346 1.79363911 4.50940468 3.01880935 6 6 C6.46922377 9.02388651 6.78109686 11.95187697 7 15 C7.07863281 16.03382813 7.15726562 17.06765625 7.23828125 18.1328125 C8.21173421 43.88759657 1.26008208 73.80526871 -10 97 C-9.67 97.33 -9.34 97.66 -9 98 C-8.06542969 97.29617188 -7.13085938 96.59234375 -6.16796875 95.8671875 C-4.84124433 94.86966065 -3.51441207 93.87227722 -2.1875 92.875 C-1.47480957 92.33875 -0.76211914 91.8025 -0.02783203 91.25 C3.89386136 88.30597418 7.83092173 85.38662592 11.80078125 82.5078125 C20.97946898 75.84389741 29.89220242 69.04379461 38.34716797 61.4765625 C40.05514844 59.95073297 41.77933264 58.44452967 43.50390625 56.9375 C50.01674301 51.17152717 55.39892906 45.46011792 60 38 C64.50419854 30.85071842 64.50419854 30.85071842 68 29 C71.60792603 28.46264931 73.41683683 28.68064874 76.625 30.4375 C80.91956255 35.07110696 83.16749977 40.37469718 83.6875 46.6875 C83.05386812 59.45914254 73.692315 69.58100935 65 78 C64.15695312 78.82886719 63.31390625 79.65773438 62.4453125 80.51171875 C54.50022621 88.01004487 45.73745944 94.46603639 37 101 C35.64962185 102.01286389 34.29935816 103.0258804 32.94921875 104.0390625 C30.97349193 105.52067488 28.99747316 107.00189225 27.02075195 108.48217773 C2.17591513 127.08754398 2.17591513 127.08754398 -21.2421875 147.4296875 C-24.71502544 150.66641182 -28.27416632 153.80035248 -31.84375 156.9296875 C-34.08629155 158.97821064 -34.08629155 158.97821064 -35.96875 161.5703125 C-38.90288726 165.07999207 -41.39837065 166.74442085 -45.9375 167.46875 C-54.24657534 167.55353648 -54.24657534 167.55353648 -58.0625 164.75 C-58.701875 163.8425 -59.34125 162.935 -60 162 C-60.5775 161.29875 -61.155 160.5975 -61.75 159.875 C-65.30167365 154.54748953 -64.68158717 148.09777091 -64 142 C-60.57066176 128.79168943 -54.03720529 116.44511422 -48.32446289 104.105896 C-35.54534066 76.46429151 -24.8876342 48.53845129 -17.75 18.875 C-16.18137315 12.40097425 -14.63253102 6.10262585 -10.25 0.9375 C-6.83132139 -0.48694942 -3.59824506 -0.66396189 0 0 Z " fill="#FDD065" transform="translate(377,661)"/>
<path d="M0 0 C0.98355469 -0.00773438 1.96710938 -0.01546875 2.98046875 -0.0234375 C6.54009225 0.4773647 9.25122223 1.81372223 11.8125 4.375 C12.57030281 8.31040779 12.72004876 11.95171294 10.51806641 15.4050293 C6.3007041 20.08628955 1.99228196 23.73884234 -3.3125 27.125 C-4.08094238 27.62596191 -4.84938477 28.12692383 -5.64111328 28.64306641 C-18.70010848 37.04467602 -32.25633977 44.53083413 -46.1875 51.375 C-45.30451988 51.36500725 -45.30451988 51.36500725 -44.40370178 51.35481262 C-38.18886874 51.28762301 -31.97414141 51.24285889 -25.7590332 51.21020508 C-23.45007119 51.19526502 -21.14113681 51.17490558 -18.83227539 51.14868164 C21.90025291 50.69815921 21.90025291 50.69815921 35.8125 61.375 C36.59625 61.931875 37.38 62.48875 38.1875 63.0625 C40.35067375 66.14086264 40.43443015 68.41392227 40.26953125 72.12109375 C39.38721455 76.47234791 36.77113458 79.04818303 33.1171875 81.5234375 C29.82747099 82.73895987 26.6438417 82.62433662 23.1875 82.5625 C22.19556641 82.5615332 22.19556641 82.5615332 21.18359375 82.56054688 C17.56082897 82.5292562 14.03023287 82.30282971 10.43359375 81.87109375 C2.48613155 81.02566762 -5.51786879 81.22255904 -13.5 81.25 C-14.35185883 81.25221558 -15.20371765 81.25443115 -16.08139038 81.25671387 C-46.39568663 81.3492603 -76.1375435 83.74239654 -105.86621094 89.90917969 C-110.54276499 90.84763837 -115.24846638 91.62901441 -119.95117188 92.42407227 C-122.79545938 92.91333217 -125.44334337 93.46028112 -128.1875 94.375 C-143.41526122 95.33230078 -143.41526122 95.33230078 -148.94140625 91 C-152.09171106 87.8423859 -153.58267096 85.31517246 -153.75 80.8125 C-153.24004548 74.52306093 -150.88146576 70.81381016 -146.375 66.5 C-135.0888826 57.02324428 -121.67700614 51.88746505 -108.20703125 46.30859375 C-97.78502824 41.9839359 -87.50672168 37.33527462 -77.20947266 32.72363281 C-74.47061158 31.50134581 -71.72729739 30.29018835 -68.98046875 29.0859375 C-61.37597245 25.74883707 -53.90549556 22.2677843 -46.5 18.50390625 C-40.95459772 15.73260264 -35.33028433 13.12527885 -29.71063232 10.50888062 C-28.45887143 9.92598807 -27.20759807 9.34204724 -25.95684814 8.75698853 C-7.1021581 -0.05629187 -7.1021581 -0.05629187 0 0 Z " fill="#FDCF64" transform="translate(284.1875,518.625)"/>
<path d="M0 0 C4.13329191 4.02158132 7.12341524 7.49304904 7.4375 13.375 C7.31754732 23.76590115 0.47486079 32.39960266 -6 40 C-6.87393079 41.0466806 -7.74761046 42.09357092 -8.62109375 43.140625 C-18.0025382 54.30037649 -27.88417691 65.02914849 -38.28125 75.25 C-40.69477716 77.70740947 -42.90862391 80.32188342 -45.15234375 82.93359375 C-47.18910592 85.21149478 -49.32474075 87.35418588 -51.5 89.5 C-58.02427955 95.96954566 -63.8175846 102.95255502 -69.625 110.0625 C-70.45112793 111.07195679 -70.45112793 111.07195679 -71.29394531 112.10180664 C-73.89458341 115.30557645 -76.41084747 118.53040831 -78.78515625 121.90625 C-81.85236769 126.19060883 -81.85236769 126.19060883 -85 127 C-92.00540541 127.77837838 -92.00540541 127.77837838 -95.875 124.75 C-99.1209343 120.54937914 -100.5553743 117.87492722 -100.36328125 112.375 C-97.52298394 93.80617459 -81.17122106 76.5697961 -69.10546875 63.3203125 C-67.27082315 61.29845816 -65.47231214 59.25321478 -63.6875 57.1875 C-60.44085869 53.45959186 -57.10206475 49.82036598 -53.75 46.1875 C-53.23010498 45.62377686 -52.71020996 45.06005371 -52.17456055 44.47924805 C-49.82526223 41.94063179 -47.45620271 39.43505957 -45 37 C-45.54527344 37.18175781 -46.09054687 37.36351562 -46.65234375 37.55078125 C-67.5 44.5 -67.5 44.5 -69.73193359 45.24365234 C-71.29241357 45.7640363 -72.8526197 46.28524193 -74.41259766 46.80712891 C-75.19683105 47.06929199 -75.98106445 47.33145508 -76.7890625 47.6015625 C-77.49240723 47.83697754 -78.19575195 48.07239258 -78.92041016 48.31494141 C-99.04038932 54.94286598 -119.29658792 60.18482101 -140.5625 60.375 C-142.06139771 60.39590698 -142.06139771 60.39590698 -143.59057617 60.41723633 C-150.24740415 60.37428185 -157.14498175 59.88076651 -162.65869141 55.76049805 C-165.24915599 53.08849014 -166.35796822 50.56639346 -166.625 46.9375 C-165.86875039 42.17312748 -164.79623938 40.88844301 -161 38 C-156.46051925 35.3953799 -152.13135913 34.24423053 -147.015625 33.421875 C-145.43897776 33.15005504 -143.86240176 32.87782159 -142.28588867 32.60522461 C-141.4649472 32.46647919 -140.64400574 32.32773376 -139.79818726 32.18478394 C-111.18937479 27.30341109 -84.40388597 18.97274336 -57.05001831 9.44447327 C-11.28563041 -6.47878783 -11.28563041 -6.47878783 0 0 Z " fill="#FDCF64" transform="translate(828,269)"/>
<path d="M0 0 C9.4413737 3.23127874 16.1540668 11.78437696 22.875 18.75 C30.9133563 27.03545894 38.88599823 34.88569482 48 42 C49.07400302 42.88721989 50.14401448 43.7793337 51.20703125 44.6796875 C58.08520903 50.47509367 65.07730036 56.1010957 72.19335938 61.60107422 C73.36428487 62.50775031 74.53244124 63.41801846 75.69726562 64.33251953 C82.75006546 69.86209356 89.9896819 75.03708833 97.4765625 79.9609375 C98.14226257 80.39964676 98.80796265 80.83835602 99.49383545 81.2903595 C102.85797892 83.5041727 106.23053302 85.70335027 109.6171875 87.88256836 C125.02381455 97.88568166 125.02381455 97.88568166 126.69140625 104.9140625 C126.23280294 114.55862913 126.23280294 114.55862913 123 118 C117.32660067 122.28399541 112.95914036 122.47508589 106 122 C102.93822207 121.53187557 99.98890199 120.80614707 97 120 C96.15099121 119.77997314 95.30198242 119.55994629 94.42724609 119.33325195 C86.3311374 117.18733927 78.35137209 114.6712541 70.36181641 112.16308594 C58.07059427 108.33564277 45.64497063 105.05821952 33.18652344 101.828125 C30.56144865 101.14591126 27.9401114 100.45209187 25.3203125 99.75 C5.98571177 94.68900022 -13.95813968 91.29290259 -33.96484375 90.8359375 C-35.45854492 90.79569458 -35.45854492 90.79569458 -36.98242188 90.75463867 C-38.90651552 90.71092372 -40.83127239 90.68912589 -42.75585938 90.69262695 C-47.31375254 90.59633936 -49.36761116 90.48147786 -53.09375 87.64453125 C-55 85 -55 85 -55.5625 82 C-54.82761365 78.08060616 -53.97722386 76.69367873 -51 74 C-38.34669555 67.08022413 -23.74357666 66.45630634 -9.6875 66.5625 C-8.90973206 66.56354736 -8.13196411 66.56459473 -7.33062744 66.56567383 C6.0715779 66.60271829 18.90022902 67.90489491 32.04931641 70.6328125 C33.99675675 71.06166218 33.99675675 71.06166218 36 71 C33.8972657 69.1858161 31.79299007 67.3734818 29.6875 65.5625 C29.04522461 65.00900879 28.40294922 64.45551758 27.74121094 63.88525391 C24.13963747 60.7932019 20.49061013 57.7986282 16.75 54.875 C11.45872283 50.56796338 6.6024766 45.85503308 1.75 41.0625 C0.99299805 40.32306152 0.23599609 39.58362305 -0.54394531 38.82177734 C-7.62732102 31.73061771 -16.18910621 23.0973189 -16.4375 12.5625 C-16.37152534 8.43908367 -16.25414594 7.33657165 -13.6875 3.9375 C-8.92889869 0.50688045 -5.880611 -0.93430877 0 0 Z " fill="#FDCF65" transform="translate(765,511)"/>
</svg>
